<?xml version="1.0" ?><svg viewBox="0 0 32 32" xmlns="http://www.w3.org/2000/svg"><defs><style>.cls-1{fill:#ff9800;}.cls-2{fill:#4a148c;}.cls-3{fill:#f5f5f5;}.cls-4{fill:#9c27b0;}</style></defs><title/><g id="php"><path class="cls-1" d="M25,8.29v18A1.75,1.75,0,0,1,23.22,28H10.78A1.75,1.75,0,0,1,9,26.29V5.85A1.93,1.93,0,0,1,11,4H22Z"/><rect class="cls-2" height="6" width="18" x="7" y="13"/><path class="cls-3" d="M13.17,16.19h-.54V17a.36.36,0,0,1-.08.27.24.24,0,0,1-.2.08.29.29,0,0,1-.22-.08.4.4,0,0,1-.08-.26V14.8a.38.38,0,0,1,.09-.28.43.43,0,0,1,.28-.08h.75a2.08,2.08,0,0,1,.5.05.85.85,0,0,1,.31.17.66.66,0,0,1,.19.27.9.9,0,0,1,.07.37A.85.85,0,0,1,14,16,1.23,1.23,0,0,1,13.17,16.19ZM13,14.88h-.4v.87H13a1.13,1.13,0,0,0,.34,0,.46.46,0,0,0,.21-.14.49.49,0,0,0,0-.56A.7.7,0,0,0,13,14.88Z"/><path class="cls-3" d="M15.31,14.75v.82h1.25v-.82a.36.36,0,0,1,.08-.27.26.26,0,0,1,.21-.09.29.29,0,0,1,.21.09.41.41,0,0,1,.08.27V17a.41.41,0,0,1-.08.27.28.28,0,0,1-.21.08.25.25,0,0,1-.21-.08.36.36,0,0,1-.08-.27V16H15.31v1a.37.37,0,0,1-.09.27.25.25,0,0,1-.21.08.28.28,0,0,1-.21-.08.41.41,0,0,1-.07-.27V14.75a.41.41,0,0,1,.07-.27.29.29,0,0,1,.21-.09.29.29,0,0,1,.22.09A.41.41,0,0,1,15.31,14.75Z"/><path class="cls-3" d="M18.87,16.19h-.53V17a.41.41,0,0,1-.08.27.32.32,0,0,1-.42,0,.4.4,0,0,1-.08-.26V14.8a.38.38,0,0,1,.09-.28.43.43,0,0,1,.28-.08h.74a2.17,2.17,0,0,1,.51.05.74.74,0,0,1,.3.17.68.68,0,0,1,.2.27,1.11,1.11,0,0,1,.07.37.85.85,0,0,1-.27.67A1.24,1.24,0,0,1,18.87,16.19Zm-.14-1.31h-.39v.87h.39a1.2,1.2,0,0,0,.35,0,.46.46,0,0,0,.21-.14.5.5,0,0,0,.07-.26.42.42,0,0,0-.11-.3A.74.74,0,0,0,18.73,14.88Z"/><path class="cls-3" d="M9,24H9a1,1,0,0,1,1,1v3a0,0,0,0,1,0,0H8a0,0,0,0,1,0,0V25A1,1,0,0,1,9,24Z" transform="translate(35 17) rotate(90)"/><path class="cls-3" d="M9,20H9a1,1,0,0,1,1,1v3a0,0,0,0,1,0,0H8a0,0,0,0,1,0,0V21a1,1,0,0,1,1-1Z" transform="translate(31 13) rotate(90)"/><path class="cls-3" d="M9,8H9a1,1,0,0,1,1,1v3a0,0,0,0,1,0,0H8a0,0,0,0,1,0,0V9A1,1,0,0,1,9,8Z" transform="translate(19 1) rotate(90)"/><path class="cls-3" d="M9,4H9a1,1,0,0,1,1,1V8a0,0,0,0,1,0,0H8A0,0,0,0,1,8,8V5A1,1,0,0,1,9,4Z" transform="translate(15 -3) rotate(90)"/><path class="cls-4" d="M23,31H9a3,3,0,0,1-3-3V4A3,3,0,0,1,7.5,1.41,2.92,2.92,0,0,1,9,1H20a1,1,0,0,1,.71.29l5,5A1,1,0,0,1,26,7V23a1,1,0,0,1-2,0V7.41L19.59,3H9a1,1,0,0,0-.49.13A1,1,0,0,0,8,4V28a1,1,0,0,0,.5.87A1.09,1.09,0,0,0,9,29H23a1,1,0,0,0,1-1V27a1,1,0,0,1,2,0v1A3,3,0,0,1,23,31Z"/><path class="cls-4" d="M25,8H22a3,3,0,0,1-3-3V2a1,1,0,0,1,.62-.92,1,1,0,0,1,1.09.21l5,5a1,1,0,0,1,.21,1.09A1,1,0,0,1,25,8ZM21,4.41V5a1,1,0,0,0,1,1h.59Z"/></g></svg>